# xmcd
#
# Track frame offsets:
#	150
#	20899
#	30644
#	40921
#	52506
#	73925
#	82729
#	87654
#	99310
#	124140
#	141918
#	153561
#	169764
#	179046
#	189495
#	199305
#	216291
#
# Disc length: 3040 seconds
# Revision: 0
# Processed by: cddbd v1.5.2PL0 Copyright (c) Steve Scherf et al.
# Submitted via: dBpowerAMP V12.0
#
DISCID=f40bde11
DTITLE=Soloists - Orchestra d Coro dell'Accademia Nazionale di Santa Cecilia - Franco Capuana - Puccini: la fanciulla del West (highlights)
DYEAR=1958
DGENRE=Opera
TTITLE0=La fanciulla del West - Act I: Che Faranno I Vecchi Miei
TTITLE1=La fanciulla del West - Act I: Jim, Perche Piangi?
TTITLE2=La fanciulla del West - Act I: Minnie, Dalla Mia Casa Son Partito
TTITLE3=La fanciulla del West - Act I: Laggiu Nel Soledad
TTITLE4=La fanciulla del West - Act I: Mister Johnson, Siete Rimasto Indietro
TTITLE5=La fanciulla del West - Act I: Io Non Son Che Una Povera Fanciulla
TTITLE6=La fanciulla del West - Act I: Quello Che Tacete
TTITLE7=La fanciulla del West - Act I: Come Voi Leggermi in Cor Non So
TTITLE8=La fanciulla del West - Act I: Ah, Non Temete, Nessuno Ardir?
TTITLE9=La fanciulla del West - Act II: Non Mi Difendero... or Son Sei Mesi
TTITLE10=La fanciulla del West - Act II: L'Han Ferito... Che Importa
TTITLE11=La fanciulla del West - Act II: Che c'e di nuovo, Jack?
TTITLE12=La fanciulla del West - Act III: Ch'Ella Mi Creda Libero E Lontano
TTITLE13=La fanciulla del West - Act III: Ah-Ah-Ah!
TTITLE14=La fanciulla del West - Act III: Non VI Fu Mai
TTITLE15=La fanciulla del West - Act III: E Anche Tu lo Vorrai
TTITLE16=La fanciulla del West - Act III: le Tue Parole Sono Di Dio
EXTD=
EXTT0=
EXTT1=
EXTT2=
EXTT3=
EXTT4=
EXTT5=
EXTT6=
EXTT7=
EXTT8=
EXTT9=
EXTT10=
EXTT11=
EXTT12=
EXTT13=
EXTT14=
EXTT15=
EXTT16=
PLAYORDER=
